<?xml version="1.0" encoding="UTF-8" standalone="no"?>
<!-- Created with Inkscape (http://www.inkscape.org/) -->

<svg
   width="512"
   height="512"
   viewBox="0 0 512 512"
   version="1.1"
   id="svg5"
   inkscape:version="1.2.1 (9c6d41e, 2022-07-14)"
   sodipodi:docname="icon.svg"
   inkscape:export-filename="icon.png"
   inkscape:export-xdpi="28.799999"
   inkscape:export-ydpi="28.799999"
   xmlns:inkscape="http://www.inkscape.org/namespaces/inkscape"
   xmlns:sodipodi="http://sodipodi.sourceforge.net/DTD/sodipodi-0.dtd"
   xmlns:xlink="http://www.w3.org/1999/xlink"
   xmlns="http://www.w3.org/2000/svg"
   xmlns:svg="http://www.w3.org/2000/svg">
  <sodipodi:namedview
     id="namedview7"
     pagecolor="#ffffff"
     bordercolor="#000000"
     borderopacity="0.25"
     inkscape:showpageshadow="2"
     inkscape:pageopacity="0.0"
     inkscape:pagecheckerboard="0"
     inkscape:deskcolor="#d1d1d1"
     inkscape:document-units="px"
     showgrid="false"
     inkscape:zoom="1.7616929"
     inkscape:cx="262.24775"
     inkscape:cy="251.74649"
     inkscape:window-width="1609"
     inkscape:window-height="931"
     inkscape:window-x="0"
     inkscape:window-y="38"
     inkscape:window-maximized="0"
     inkscape:current-layer="layer1" />
  <defs
     id="defs2">
    <linearGradient
       inkscape:collect="always"
       id="linearGradient1188">
      <stop
         style="stop-color:#5e79ff;stop-opacity:1;"
         offset="0"
         id="stop1184" />
      <stop
         style="stop-color:#000000;stop-opacity:0;"
         offset="1"
         id="stop1186" />
    </linearGradient>
    <linearGradient
       inkscape:collect="always"
       xlink:href="#linearGradient1188"
       id="linearGradient1190"
       x1="52.590118"
       y1="164.39232"
       x2="207.62402"
       y2="164.39232"
       gradientUnits="userSpaceOnUse"
       gradientTransform="matrix(1.0570141,0,0,1.0412638,-25.093227,-3.4018424)" />
  </defs>
  <g
     inkscape:label="Layer 1"
     inkscape:groupmode="layer"
     id="layer1"
     transform="matrix(0.97650541,0,0,1.0696064,1.2461142,-30.732061)">
    <ellipse
       style="fill:url(#linearGradient1190);fill-opacity:1;stroke:#000000;stroke-width:1.04911;stroke-opacity:1"
       id="path111"
       cx="112.43179"
       cy="167.77393"
       rx="81.408005"
       ry="84.71299" />
    <ellipse
       style="fill:#000000;stroke-width:1.04911"
       id="path113"
       cx="114.79095"
       cy="338.83859"
       rx="27.518198"
       ry="109.56213" />
    <rect
       style="fill:#000000;stroke-width:1.04911"
       id="rect172"
       width="32.955116"
       height="200.7361"
       x="88.052689"
       y="248.19463" />
    <rect
       style="fill:none;stroke-width:1.04911"
       id="rect288"
       width="195.53369"
       height="275.94455"
       x="244.58948"
       y="180.56117" />
    <rect
       style="fill:none;stroke:#000000;stroke-width:6.39957;stroke-dasharray:none;stroke-opacity:1"
       id="rect967"
       width="160.38156"
       height="240.23405"
       x="218.77463"
       y="162.16487" />
    <path
       style="fill:none;stroke:#000000;stroke-width:6.39957;stroke-dasharray:none;stroke-opacity:1"
       d="m 232.51992,238.14097 c 0.091,-0.31364 0.0845,-0.67273 0.27289,-0.94091 0.78174,-1.11235 3.3399,-2.23006 4.50278,-2.68829 0.403,-0.1588 5.23719,-1.79998 5.59435,-1.8818 1.74805,-0.40047 3.56823,-0.42869 5.32147,-0.80649 2.46064,-0.53024 3.15363,-0.91802 5.7308,-2.28504 2.25844,-1.19797 0.93437,-1.05922 3.41118,-1.74738 1.16805,-0.32455 2.34813,-0.6247 3.54765,-0.80649 1.37557,-0.20848 3.56333,0.0732 5.04855,0 0.54984,-0.0271 1.74765,-0.21518 2.31962,-0.26884 1.09042,-0.10236 2.18388,-0.17114 3.27474,-0.26882 0.72346,-0.0648 2.43375,-0.26294 3.13829,-0.13442 0.70712,0.12899 1.38441,0.39605 2.04671,0.67208 3.34664,1.39477 7.13329,6.36463 9.14201,9.27459 0.39038,0.56555 0.70119,1.18183 1.09157,1.74739 0.92896,1.34575 2.56304,3.21493 3.54764,4.30126 0.34271,0.37813 0.68696,0.76213 1.09158,1.07532 1.66158,1.28607 4.71654,1.20849 6.68594,0.9409 1.07096,-0.14551 2.08947,-0.5482 3.1383,-0.80649 3.03603,-0.7477 0.4678,-0.064 4.77566,-1.47856 0.81658,-0.26814 1.24359,-0.34371 1.91027,-0.67206"
       id="path1083" />
    <path
       style="fill:none;stroke:#000000;stroke-width:6.39957;stroke-dasharray:none;stroke-opacity:1"
       d="m 306.74744,242.44223 c 3.49577,-2.06587 6.84633,-4.3936 9.96068,-6.98956 1.77042,-1.47572 3.39138,-3.12181 5.18502,-4.57008 2.01176,-1.62444 3.48824,-2.39021 5.7308,-3.49479 0.40066,-0.19734 0.79121,-0.43986 1.22803,-0.53766 0.64641,-0.14472 1.47149,-0.13441 2.18315,-0.13441 0.63675,0 1.29448,-0.15964 1.91026,0 0.53149,0.13778 0.99481,0.46113 1.50093,0.67207 0.67673,0.28204 1.3814,0.49927 2.04672,0.80649 3.46548,1.60025 6.6634,3.7038 9.41489,6.31748 1.55519,1.4773 2.97667,3.06673 4.50276,4.57009 0.45484,0.44805 0.92985,0.87706 1.36448,1.34415 0.12033,0.12932 0.19721,0.46799 0.40934,0.53765 0.0863,0.0283 0.1837,-0.0176 0.2729,0 0.60133,0.11848 1.1745,0.41959 1.77381,0.53766 0.0892,0.0176 0.18661,-0.0283 0.27291,0 0.25718,0.0845 0.44693,0.42176 0.68224,0.53766 0.0814,0.0401 0.20857,-0.0633 0.27288,0 0.0321,0.0316 -0.0253,0.0971 0,0.13442 0.37506,0.5542 0.95223,0.95062 1.36449,1.47856 0.19024,0.24363 0.84791,1.66738 1.09157,1.74738 0.33847,0.11115 0.8811,-0.038 1.22803,0 1.02652,0.11236 0.55115,0.31293 1.91027,0.13442 1.23636,-0.1624 1.79073,-0.91599 2.5925,-1.74739 0.53163,-0.55126 1.13089,-1.0392 1.63738,-1.61297 1.09262,-1.23779 1.85433,-2.73764 2.8654,-4.03243 0.15687,-0.20091 0.38506,-0.33975 0.54579,-0.53766 0.67125,-0.82655 1.47461,-1.88341 2.04672,-2.82271 0.25297,-0.41535 0.60763,-1.29515 1.09157,-1.61297 0.32883,-0.21596 2.72896,-1.1467 2.72896,-1.47856"
       id="path1085" />
    <path
       style="fill:none;stroke:#000000;stroke-width:6.39957;stroke-dasharray:none;stroke-opacity:1"
       d="m 231.28529,281.04489 c 0.091,-0.31364 0.0845,-0.67271 0.27288,-0.9409 0.78174,-1.11234 3.3399,-2.23007 4.50278,-2.68828 0.403,-0.1588 5.2372,-1.79998 5.59436,-1.88181 1.74804,-0.40047 3.56822,-0.42868 5.32146,-0.80649 2.46065,-0.53024 3.15364,-0.91802 5.7308,-2.28503 2.25845,-1.19798 0.93437,-1.05922 3.41118,-1.7474 1.16806,-0.32454 2.34813,-0.62469 3.54765,-0.80649 1.37557,-0.20847 3.56333,0.0732 5.04855,0 0.54985,-0.0271 1.74765,-0.21516 2.31962,-0.26883 1.09044,-0.10236 2.18388,-0.17113 3.27474,-0.26882 0.72346,-0.0648 2.43376,-0.26294 3.1383,-0.13442 0.70712,0.12899 1.38441,0.39604 2.04672,0.67207 3.34663,1.39479 7.13327,6.36463 9.14199,9.2746 0.39039,0.56554 0.70119,1.18184 1.09158,1.74739 0.92896,1.34575 2.56303,3.21494 3.54763,4.30127 0.34272,0.37812 0.68696,0.76213 1.09158,1.07531 1.66159,1.28608 4.71655,1.2085 6.68594,0.9409 1.07098,-0.14551 2.08947,-0.54819 3.1383,-0.80649 3.03604,-0.7477 0.4678,-0.064 4.77567,-1.47856 0.81657,-0.26813 1.24359,-0.3437 1.91026,-0.67206"
       id="path1083-7" />
    <path
       style="fill:none;stroke:#000000;stroke-width:6.39957;stroke-dasharray:none;stroke-opacity:1"
       d="m 305.51281,285.34616 c 3.49578,-2.06587 6.84633,-4.3936 9.96067,-6.98956 1.77042,-1.47572 3.39139,-3.12181 5.18502,-4.57008 2.01177,-1.62443 3.48824,-2.39021 5.7308,-3.49478 0.40066,-0.19735 0.79122,-0.43987 1.22803,-0.53766 0.64641,-0.14473 1.4715,-0.13442 2.18315,-0.13442 0.63676,0 1.29449,-0.15963 1.91027,0 0.53148,0.13778 0.9948,0.46114 1.50093,0.67208 0.67672,0.28204 1.38139,0.49926 2.04672,0.80649 3.46548,1.60024 6.66339,3.70379 9.41488,6.31748 1.55519,1.47729 2.97667,3.06671 4.50276,4.57009 0.45484,0.44805 0.92985,0.87705 1.36449,1.34414 0.12033,0.12931 0.1972,0.468 0.40934,0.53766 0.0863,0.0283 0.18369,-0.0176 0.27289,0 0.60133,0.11847 1.17451,0.41958 1.77383,0.53766 0.0892,0.0176 0.1866,-0.0283 0.27289,0 0.25718,0.0845 0.44693,0.42176 0.68224,0.53765 0.0814,0.0401 0.20858,-0.0633 0.2729,0 0.0321,0.0317 -0.0253,0.0972 0,0.13442 0.37506,0.55421 0.95221,0.95061 1.36447,1.47857 0.19026,0.24363 0.84792,1.66736 1.09158,1.74738 0.33846,0.11115 0.8811,-0.038 1.22803,0 1.02651,0.11235 0.55115,0.31293 1.91026,0.13441 1.23636,-0.16239 1.79074,-0.91598 2.59251,-1.74738 0.53163,-0.55127 1.1309,-1.0392 1.63738,-1.61298 1.09261,-1.23778 1.85434,-2.73765 2.8654,-4.03244 0.15687,-0.20089 0.38506,-0.33973 0.54579,-0.53765 0.67124,-0.82656 1.47461,-1.88341 2.04671,-2.82271 0.25298,-0.41535 0.60763,-1.29514 1.09158,-1.61297 0.32883,-0.21595 2.72895,-1.1467 2.72895,-1.47856"
       id="path1085-3" />
    <path
       style="fill:none;stroke:#000000;stroke-width:6.39957;stroke-dasharray:none;stroke-opacity:1"
       d="m 224.35899,195.44616 c 0.091,-0.31363 0.0845,-0.67272 0.27289,-0.9409 0.78174,-1.11235 3.3399,-2.23007 4.50278,-2.68829 0.403,-0.1588 5.23719,-1.79998 5.59435,-1.8818 1.74805,-0.40047 3.56822,-0.42869 5.32147,-0.80649 2.46063,-0.53025 3.15363,-0.91802 5.73081,-2.28504 2.25844,-1.19798 0.93436,-1.05922 3.41118,-1.74739 1.16805,-0.32454 2.34813,-0.62469 3.54765,-0.80649 1.37557,-0.20847 3.56333,0.0732 5.04854,0 0.54984,-0.0271 1.74766,-0.21517 2.31962,-0.26884 1.09042,-0.10236 2.18388,-0.17113 3.27474,-0.26882 0.72346,-0.0648 2.43374,-0.26294 3.13829,-0.13441 0.70712,0.12898 1.38441,0.39604 2.04672,0.67207 3.34663,1.39478 7.13328,6.36463 9.142,9.27459 0.39038,0.56555 0.70119,1.18184 1.09157,1.7474 0.92896,1.34575 2.56304,3.21493 3.54765,4.30126 0.34271,0.37812 0.68695,0.76213 1.09157,1.07531 1.66158,1.28608 4.71654,1.2085 6.68594,0.94091 1.07096,-0.14552 2.08947,-0.5482 3.1383,-0.80649 3.03603,-0.7477 0.4678,-0.064 4.77567,-1.47856 0.81658,-0.26814 1.24359,-0.34371 1.91027,-0.67207"
       id="path1083-79" />
    <path
       style="fill:none;stroke:#000000;stroke-width:6.39957;stroke-dasharray:none;stroke-opacity:1"
       d="m 298.58651,199.74742 c 3.49577,-2.06586 6.84634,-4.39359 9.96068,-6.98956 1.77042,-1.47571 3.39138,-3.12181 5.18502,-4.57007 2.01176,-1.62444 3.48825,-2.39022 5.73081,-3.49479 0.40066,-0.19734 0.79121,-0.43987 1.22803,-0.53766 0.64641,-0.14473 1.47149,-0.13442 2.18315,-0.13442 0.63675,0 1.29447,-0.15963 1.91026,0 0.53149,0.13779 0.99481,0.46114 1.50093,0.67208 0.67673,0.28204 1.38139,0.49926 2.04672,0.80649 3.46548,1.60025 6.6634,3.7038 9.41489,6.31748 1.55519,1.47729 2.97667,3.06672 4.50276,4.57009 0.45484,0.44805 0.92984,0.87706 1.36448,1.34415 0.12033,0.12931 0.19721,0.46799 0.40934,0.53765 0.0863,0.0283 0.1837,-0.0176 0.2729,0 0.60132,0.11847 1.1745,0.41959 1.77381,0.53766 0.0892,0.0176 0.18661,-0.0283 0.27291,0 0.25718,0.0845 0.44693,0.42176 0.68224,0.53766 0.0814,0.0401 0.20856,-0.0633 0.27288,0 0.0321,0.0317 -0.0253,0.0971 0,0.13441 0.37506,0.55421 0.95223,0.95063 1.36449,1.47857 0.19024,0.24363 0.84791,1.66737 1.09157,1.74738 0.33846,0.11115 0.8811,-0.038 1.22803,0 1.02652,0.11236 0.55114,0.31293 1.91027,0.13442 1.23636,-0.1624 1.79073,-0.91599 2.5925,-1.74739 0.53163,-0.55127 1.13089,-1.0392 1.63738,-1.61298 1.09262,-1.23778 1.85432,-2.73764 2.8654,-4.03243 0.15687,-0.2009 0.38506,-0.33974 0.54579,-0.53766 0.67125,-0.82656 1.47461,-1.88341 2.04672,-2.82271 0.25297,-0.41534 0.60763,-1.29514 1.09157,-1.61297 0.32883,-0.21595 2.72896,-1.1467 2.72896,-1.47855"
       id="path1085-0" />
    <path
       style="fill:none;stroke:#000000;stroke-width:6.39957;stroke-dasharray:none;stroke-opacity:1"
       d="m 230.65563,323.84426 c 0.091,-0.31364 0.0845,-0.67271 0.2729,-0.9409 0.78172,-1.11234 3.33988,-2.23007 4.50276,-2.68828 0.40299,-0.15881 5.2372,-1.79998 5.59435,-1.88181 1.74805,-0.40047 3.56823,-0.42868 5.32147,-0.80649 2.46065,-0.53024 3.15363,-0.91802 5.73081,-2.28504 2.25845,-1.19798 0.93435,-1.05921 3.41119,-1.74739 1.16805,-0.32454 2.34812,-0.6247 3.54764,-0.80649 1.37556,-0.20847 3.56334,0.0732 5.04854,0 0.54985,-0.0271 1.74766,-0.21516 2.31962,-0.26883 1.09044,-0.10236 2.18387,-0.17113 3.27474,-0.26883 0.72346,-0.0648 2.43375,-0.26294 3.1383,-0.13441 0.70712,0.12899 1.38441,0.39604 2.04672,0.67207 3.34663,1.39479 7.13327,6.36463 9.142,9.2746 0.39038,0.56554 0.70118,1.18184 1.09157,1.74739 0.92896,1.34575 2.56302,3.21494 3.54764,4.30127 0.34272,0.37812 0.68696,0.76213 1.09157,1.0753 1.66159,1.28608 4.71655,1.20851 6.68594,0.94091 1.07097,-0.14552 2.08948,-0.54819 3.1383,-0.80649 3.03604,-0.7477 0.4678,-0.064 4.77568,-1.47856 0.81656,-0.26813 1.24358,-0.3437 1.91026,-0.67207"
       id="path1083-2" />
    <path
       style="fill:none;stroke:#000000;stroke-width:6.39957;stroke-dasharray:none;stroke-opacity:1"
       d="m 304.88315,328.14553 c 3.49577,-2.06587 6.84634,-4.3936 9.96067,-6.98956 1.77043,-1.47572 3.39139,-3.12181 5.18502,-4.57008 2.01177,-1.62443 3.48824,-2.39021 5.73081,-3.49478 0.40066,-0.19735 0.79122,-0.43987 1.22802,-0.53766 0.64642,-0.14473 1.47151,-0.13442 2.18316,-0.13442 0.63675,0 1.29449,-0.15963 1.91027,0 0.53148,0.13778 0.99479,0.46113 1.50093,0.67208 0.67672,0.28203 1.38138,0.49926 2.04672,0.80649 3.46548,1.60024 6.66339,3.70379 9.41489,6.31748 1.55518,1.47729 2.97666,3.06671 4.50276,4.57009 0.45483,0.44805 0.92984,0.87704 1.36448,1.34414 0.12032,0.12931 0.1972,0.468 0.40934,0.53766 0.0863,0.0283 0.18369,-0.0176 0.2729,0 0.60132,0.11847 1.1745,0.41958 1.77381,0.53766 0.0892,0.0176 0.18661,-0.0283 0.27291,0 0.25717,0.0845 0.44691,0.42176 0.68223,0.53765 0.0814,0.0401 0.20857,-0.0633 0.27289,0 0.0321,0.0317 -0.0253,0.0972 0,0.13441 0.37506,0.55422 0.95222,0.95062 1.36448,1.47856 0.19025,0.24365 0.84791,1.66738 1.09158,1.7474 0.33845,0.11113 0.8811,-0.038 1.22803,0 1.02651,0.11234 0.55113,0.31293 1.91027,0.13441 1.23635,-0.16239 1.79072,-0.91599 2.5925,-1.74738 0.53163,-0.55127 1.13089,-1.03921 1.63738,-1.61299 1.09261,-1.23777 1.85433,-2.73764 2.8654,-4.03243 0.15686,-0.2009 0.38506,-0.33974 0.54578,-0.53765 0.67125,-0.82656 1.47461,-1.88341 2.04672,-2.82271 0.25297,-0.41536 0.60762,-1.29514 1.09158,-1.61297 0.32882,-0.21596 2.72895,-1.14671 2.72895,-1.47857"
       id="path1085-39" />
    <path
       style="fill:none;stroke:#000000;stroke-width:6.39957;stroke-dasharray:none;stroke-opacity:1"
       d="m 232.54462,370.9856 c 0.091,-0.31364 0.0845,-0.67272 0.27288,-0.94091 0.78174,-1.11233 3.3399,-2.23006 4.50278,-2.68829 0.403,-0.15879 5.2372,-1.79997 5.59435,-1.88179 1.74805,-0.40047 3.56823,-0.42869 5.32147,-0.80649 2.46064,-0.53024 3.15363,-0.91802 5.7308,-2.28505 2.25845,-1.19797 0.93436,-1.05921 3.41118,-1.74738 1.16806,-0.32454 2.34813,-0.6247 3.54765,-0.80649 1.37556,-0.20847 3.56333,0.0732 5.04855,0 0.54984,-0.0271 1.74765,-0.21517 2.31962,-0.26883 1.09042,-0.10236 2.18388,-0.17114 3.27474,-0.26883 0.72346,-0.0648 2.43375,-0.26294 3.1383,-0.13442 0.70712,0.129 1.3844,0.39605 2.04671,0.67208 3.34664,1.39479 7.13328,6.36463 9.142,9.2746 0.39039,0.56554 0.70119,1.18183 1.09158,1.74738 0.92896,1.34575 2.56303,3.21493 3.54763,4.30126 0.34272,0.37813 0.68696,0.76214 1.09158,1.07532 1.66159,1.28607 4.71654,1.2085 6.68594,0.94091 1.07097,-0.14552 2.08947,-0.54819 3.1383,-0.80649 3.03604,-0.74771 0.4678,-0.064 4.77566,-1.47857 0.81658,-0.26814 1.24359,-0.3437 1.91027,-0.67206"
       id="path1083-9" />
    <path
       style="fill:none;stroke:#000000;stroke-width:6.39957;stroke-dasharray:none;stroke-opacity:1"
       d="m 306.77213,375.28687 c 3.49578,-2.06588 6.84634,-4.39361 9.96068,-6.98956 1.77042,-1.47573 3.39139,-3.12181 5.18501,-4.57009 2.01177,-1.62444 3.48824,-2.39021 5.73081,-3.49479 0.40066,-0.19733 0.79122,-0.43985 1.22803,-0.53765 0.64641,-0.14472 1.4715,-0.13441 2.18315,-0.13441 0.63675,0 1.29449,-0.15965 1.91027,0 0.53148,0.13777 0.9948,0.46113 1.50092,0.67206 0.67672,0.28204 1.3814,0.49927 2.04672,0.80649 3.46549,1.60025 6.6634,3.7038 9.41489,6.31748 1.55519,1.4773 2.97667,3.06673 4.50276,4.57009 0.45484,0.44807 0.92985,0.87706 1.36449,1.34415 0.12032,0.12932 0.1972,0.46799 0.40934,0.53766 0.0863,0.0283 0.18369,-0.0176 0.27289,0 0.60132,0.11848 1.1745,0.41959 1.77382,0.53765 0.0892,0.0176 0.18661,-0.0283 0.2729,0 0.25718,0.0845 0.44693,0.42177 0.68224,0.53766 0.0814,0.0401 0.20857,-0.0633 0.27289,0 0.0321,0.0317 -0.0253,0.0971 0,0.13442 0.37506,0.55422 0.95222,0.95062 1.36448,1.47856 0.19025,0.24364 0.84792,1.66738 1.09158,1.74738 0.33846,0.11115 0.88109,-0.038 1.22803,0 1.02651,0.11236 0.55114,0.31294 1.91026,0.13443 1.23636,-0.1624 1.79073,-0.916 2.59251,-1.74739 0.53163,-0.55126 1.13088,-1.03921 1.63738,-1.61298 1.09261,-1.23779 1.85432,-2.73764 2.8654,-4.03243 0.15686,-0.2009 0.38506,-0.33975 0.54578,-0.53766 0.67125,-0.82655 1.47462,-1.8834 2.04672,-2.82271 0.25297,-0.41535 0.60762,-1.29515 1.09158,-1.61296 0.32882,-0.21597 2.72895,-1.14671 2.72895,-1.47857"
       id="path1085-7" />
    <ellipse
       style="fill:#000000;fill-opacity:1;stroke:#000000;stroke-width:6.39957;stroke-dasharray:none;stroke-opacity:1"
       id="path2648"
       cx="146.98705"
       cy="119.33566"
       rx="9.0086384"
       ry="8.7239904" />
    <path
       style="fill:#000000;fill-opacity:1;stroke:#000000;stroke-width:6.39983;stroke-dasharray:none;stroke-opacity:1"
       id="path2650"
       sodipodi:type="arc"
       sodipodi:cx="26.10664"
       sodipodi:cy="-229.1402"
       sodipodi:rx="2.2513313"
       sodipodi:ry="32.385006"
       sodipodi:start="3.0502102"
       sodipodi:end="5.892717"
       sodipodi:arc-type="slice"
       d="m 23.864702,-226.18489 a 2.2513313,32.385006 0 0 1 1.704767,-34.40496 2.2513313,32.385006 0 0 1 2.619047,19.12322 l -2.081876,12.32643 z"
       transform="matrix(-0.48341185,0.87539304,-0.88141616,-0.4723405,0,0)" />
    <rect
       style="fill:#000000;fill-opacity:1;stroke:#000000;stroke-width:6.39957;stroke-dasharray:none;stroke-opacity:1"
       id="rect2744"
       width="85.199867"
       height="18.322819"
       x="130.90652"
       y="276.16885" />
  </g>
</svg>
